<svg width="64" height="64" viewBox="0 0 64 64" fill="none" xmlns="http://www.w3.org/2000/svg">
<path d="M58.4794 20.4531C58.4312 20.2966 58.3687 20.1449 58.2927 19.9998C58.2394 19.9198 58.186 19.8665 58.1327 19.7865C58.0527 19.6798 57.9727 19.5465 57.866 19.4398C57.786 19.3598 57.706 19.3331 57.6527 19.2531C57.546 19.1731 57.466 19.0931 57.3594 19.0131H57.3327L33.306 5.67981C32.9111 5.45788 32.4657 5.34131 32.0127 5.34131C31.5597 5.34131 31.1143 5.45788 30.7194 5.67981L6.69271 19.0131H6.66604C6.55938 19.0665 6.45271 19.1731 6.37271 19.2531C6.29105 19.3022 6.21881 19.3654 6.15937 19.4398C6.05271 19.5465 5.97271 19.6531 5.89271 19.7865C5.83938 19.8665 5.78604 19.9198 5.73271 19.9998C5.65271 20.1331 5.59937 20.2931 5.54604 20.4531C5.54604 20.5065 5.49271 20.5865 5.46604 20.6398C5.41271 20.8531 5.35938 21.0931 5.35938 21.3331V42.6665C5.35938 43.6265 5.89271 44.5331 6.71938 44.9865L30.7194 58.3198C30.7194 58.3198 30.986 58.4265 31.0927 58.4798C31.1727 58.5065 31.2527 58.5598 31.3327 58.5598C31.7713 58.6622 32.2275 58.6622 32.666 58.5598C32.746 58.5598 32.826 58.5065 32.906 58.4798C33.0394 58.4265 33.1727 58.3998 33.2794 58.3198L57.2794 44.9865C58.1327 44.5065 58.6394 43.6265 58.6394 42.6665V21.3331C58.6394 21.0931 58.6127 20.8531 58.5327 20.6398C58.5327 20.5598 58.4794 20.5065 58.4527 20.4531H58.4794ZM31.9994 11.0665L50.506 21.3598L43.9994 24.9865L25.4927 14.6931L31.9994 11.0665ZM19.9994 17.7331L38.506 28.0265L31.9994 31.6531L13.4927 21.3598L19.9994 17.7331ZM53.3327 41.1198L34.666 51.4931V36.2665L41.3327 32.5598V41.1198L46.666 38.1598V29.5998L53.3327 25.8931V41.1198Z" fill="#1F66F4"/>
</svg>
