<svg width="22" height="24" viewBox="0 0 22 24" fill="none" xmlns="http://www.w3.org/2000/svg">
<path d="M8.55849 2.28571H13.4468C14.119 2.28571 14.6689 1.77143 14.6689 1.14286C14.6689 0.514286 14.119 0 13.4468 0H8.55849C7.88634 0 7.3364 0.514286 7.3364 1.14286C7.3364 1.77143 7.88634 2.28571 8.55849 2.28571ZM19.5939 7.30286L20.5104 6.44571C20.7364 6.23309 20.8633 5.94549 20.8633 5.64571C20.8633 5.34594 20.7364 5.05834 20.5104 4.84571L20.4982 4.83429C20.2709 4.62296 19.9633 4.50435 19.6428 4.50435C19.3222 4.50435 19.0147 4.62296 18.7873 4.83429L17.8708 5.69143C15.9245 4.22649 13.501 3.42803 11.0026 3.42857C5.13665 3.42857 0.150561 7.95429 0.00391163 13.44C-0.0352722 14.8136 0.220265 16.1807 0.755433 17.4605C1.2906 18.7402 2.09455 19.9067 3.11981 20.8911C4.14506 21.8754 5.37084 22.6577 6.72475 23.1917C8.07866 23.7256 9.53326 24.0005 11.0026 24C13.0732 24.001 15.102 23.4551 16.8554 22.4251C18.6087 21.3951 20.0152 19.9228 20.913 18.178C21.8108 16.4331 22.1633 14.4866 21.93 12.5626C21.6966 10.6386 20.8868 8.81533 19.5939 7.30286ZM12.2247 13.7143C12.2247 14.3429 11.6748 14.8571 11.0026 14.8571C10.3305 14.8571 9.78057 14.3429 9.78057 13.7143V9.14286C9.78057 8.51429 10.3305 8 11.0026 8C11.6748 8 12.2247 8.51429 12.2247 9.14286V13.7143Z" fill="#3C965A"/>
</svg>
