<svg width="27" height="27" viewBox="0 0 27 27" fill="none" xmlns="http://www.w3.org/2000/svg">
<path d="M13.3333 0C20.6973 0 26.6667 5.96933 26.6667 13.3333C26.6667 20.6973 20.6973 26.6667 13.3333 26.6667C5.96933 26.6667 0 20.6973 0 13.3333C0 5.96933 5.96933 0 13.3333 0ZM13.3333 5.33333C12.9797 5.33333 12.6406 5.47381 12.3905 5.72386C12.1405 5.97391 12 6.31304 12 6.66667V13.3333C12.0001 13.6869 12.1406 14.026 12.3907 14.276L16.3907 18.276C16.6421 18.5189 16.9789 18.6533 17.3285 18.6502C17.6781 18.6472 18.0125 18.507 18.2598 18.2598C18.507 18.0125 18.6472 17.6781 18.6502 17.3285C18.6533 16.9789 18.5189 16.6421 18.276 16.3907L14.6667 12.7813V6.66667C14.6667 6.31304 14.5262 5.97391 14.2761 5.72386C14.0261 5.47381 13.687 5.33333 13.3333 5.33333Z" fill="#FF6600"/>
</svg>
