<svg width="30" height="25" viewBox="0 0 30 25" fill="none" xmlns="http://www.w3.org/2000/svg">
<path d="M26.6501 0L26.6485 24.022C27.0786 24.7297 27.5235 25.0018 27.8966 25C28.2669 24.9983 28.7071 24.7229 29.1287 24.0364L27.9771 11.7669L27.9637 11.6174L28.0559 11.4983C29.3792 9.80025 29.8417 6.86656 29.4642 4.38519C29.2754 3.14444 28.8803 2.02144 28.327 1.22756C27.863 0.561812 27.3095 0.137125 26.6502 0H26.6501ZM3.37669 0.000250101L3.37569 4.19569L2.59069 4.19469V0.000499964H1.69662L1.69675 4.19488H0.910625V0.000499964H7.52175e-09V6.45225C-6.24925e-05 7.16581 0.389375 7.5615 1.0025 7.80613L1.25625 7.9075L1.25062 8.18063C1.12562 13.4663 1.00206 18.7518 0.878 24.0374C1.3055 24.7369 1.74463 25.0018 2.11025 25C2.47587 24.9983 2.91462 24.7264 3.33669 24.0355C3.19194 18.7513 3.04733 13.467 2.90288 8.18275L2.89538 7.90775L3.14994 7.80738C3.79519 7.55075 4.21488 7.11525 4.21488 6.45263V0.000250101H3.37669ZM14.8009 2.4375C12.1321 2.4375 9.5727 3.49765 7.68561 5.38474C5.79853 7.27182 4.73838 9.83126 4.73838 12.5C4.73838 15.1687 5.79853 17.7282 7.68561 19.6153C9.5727 21.5023 12.1321 22.5625 14.8009 22.5625C17.4696 22.5625 20.0291 21.5023 21.9161 19.6153C23.8032 17.7282 24.8634 15.1687 24.8634 12.5C24.8634 9.83126 23.8032 7.27182 21.9161 5.38474C20.0291 3.49765 17.4696 2.4375 14.8009 2.4375Z" fill="#FF6600"/>
</svg>
