<svg width="23" height="22" viewBox="0 0 23 22" fill="none" xmlns="http://www.w3.org/2000/svg">
<path d="M10.8482 15.7717C10.9697 15.8411 11.1071 15.8776 11.247 15.8776C11.3869 15.8776 11.5243 15.8411 11.6458 15.7717C11.8919 15.63 17.6725 12.2561 17.6725 6.23429C17.622 4.56416 16.9233 2.97932 15.7243 1.81558C14.5253 0.651842 12.9203 0.000653488 11.2494 4.91578e-07C9.57854 -0.000652505 7.97304 0.649282 6.77315 1.81208C5.57325 2.97488 4.87323 4.55918 4.82143 6.22927C4.82143 12.2561 10.6051 15.625 10.8482 15.7717ZM11.25 3.81855C11.7268 3.81855 12.1929 3.95994 12.5893 4.22483C12.9858 4.48972 13.2947 4.86622 13.4772 5.30672C13.6597 5.74723 13.7074 6.23194 13.6144 6.69957C13.5214 7.16721 13.2918 7.59675 12.9546 7.9339C12.6175 8.27104 12.1879 8.50064 11.7203 8.59366C11.2527 8.68668 10.768 8.63894 10.3275 8.45648C9.88696 8.27401 9.51046 7.96503 9.24556 7.56859C8.98067 7.17215 8.83929 6.70606 8.83929 6.22927C8.83929 5.5899 9.09327 4.97673 9.54537 4.52463C9.99746 4.07254 10.6106 3.81855 11.25 3.81855ZM22.5 16.6757C22.5 19.8076 16.7032 21.4971 11.25 21.4971C5.79676 21.4971 0 19.8076 0 16.6757C0 15.2102 1.3279 13.9124 3.73962 13.0225C3.9374 12.9571 4.15282 12.9711 4.34047 13.0615C4.52812 13.1519 4.67333 13.3117 4.7455 13.5071C4.81766 13.7025 4.81114 13.9182 4.7273 14.1089C4.64346 14.2996 4.48886 14.4503 4.29609 14.5292C2.63772 15.1429 1.60714 15.9645 1.60714 16.6757C1.60714 18.0177 5.27545 19.89 11.25 19.89C17.2246 19.89 20.8929 18.0177 20.8929 16.6757C20.8929 15.9645 19.8623 15.1429 18.2039 14.5302C18.0111 14.4513 17.8565 14.3006 17.7727 14.1099C17.6889 13.9192 17.6823 13.7035 17.7545 13.5081C17.8267 13.3127 17.9719 13.1529 18.1595 13.0625C18.3472 12.9721 18.5626 12.9581 18.7604 13.0235C21.1721 13.9124 22.5 15.2102 22.5 16.6757Z" fill="#3C965A"/>
</svg>
