<svg width="62" height="50" viewBox="0 0 62 50" fill="none" xmlns="http://www.w3.org/2000/svg">
<path d="M53.1581 28.4231V46.8846C53.1581 47.5513 52.9145 48.1282 52.4274 48.6154C51.9402 49.1026 51.3632 49.3462 50.6966 49.3462H35.9274V34.5769H26.0812V49.3462H11.312C10.6453 49.3462 10.0684 49.1026 9.5812 48.6154C9.09402 48.1282 8.85043 47.5513 8.85043 46.8846V28.4231C8.85043 28.3974 8.85684 28.359 8.86966 28.3077C8.88248 28.2564 8.88889 28.2179 8.88889 28.1923L31.0043 9.96154L53.1197 28.1923C53.1453 28.2436 53.1581 28.3205 53.1581 28.4231ZM61.735 25.7692L59.3504 28.6154C59.1453 28.8462 58.8761 28.9872 58.5427 29.0385H58.4274C58.094 29.0385 57.8248 28.9487 57.6197 28.7692L31.0043 6.57692L4.38889 28.7692C4.0812 28.9744 3.7735 29.0641 3.46581 29.0385C3.13248 28.9872 2.86325 28.8462 2.65812 28.6154L0.273504 25.7692C0.0683761 25.5128 -0.0213675 25.2115 0.0042735 24.8654C0.0299145 24.5192 0.17094 24.2436 0.42735 24.0385L28.0812 1C28.9017 0.333333 29.8761 0 31.0043 0C32.1325 0 33.1068 0.333333 33.9274 1L43.312 8.84615V1.34615C43.312 0.987179 43.4274 0.692308 43.6581 0.461538C43.8889 0.230769 44.1838 0.115385 44.5427 0.115385H51.9274C52.2863 0.115385 52.5812 0.230769 52.812 0.461538C53.0427 0.692308 53.1581 0.987179 53.1581 1.34615V17.0385L61.5812 24.0385C61.8376 24.2436 61.9786 24.5192 62.0043 24.8654C62.0299 25.2115 61.9402 25.5128 61.735 25.7692Z" fill="#1F66F4"/>
</svg>
