<svg width="27" height="28" viewBox="0 0 27 28" fill="none" xmlns="http://www.w3.org/2000/svg">
<path d="M13.3667 0C14.2507 0 15.0986 0.351189 15.7237 0.976311C16.3488 1.60143 16.7 2.44928 16.7 3.33333C16.7 4.21739 16.3488 5.06523 15.7237 5.69036C15.0986 6.31548 14.2507 6.66667 13.3667 6.66667C12.4826 6.66667 11.6348 6.31548 11.0096 5.69036C10.3845 5.06523 10.0333 4.21739 10.0333 3.33333C10.0333 2.44928 10.3845 1.60143 11.0096 0.976311C11.6348 0.351189 12.4826 0 13.3667 0ZM18.5267 4.66667C21.3667 4.66667 24.0333 7.33333 24.0333 10C27.6333 10 27.6333 15.3333 24.0333 15.3333H2.7C-0.9 15.3333 -0.9 10 2.7 10C2.7 7.33333 5.36667 4.66667 8.20667 4.66667C8.79333 6.97333 10.8867 8.66667 13.3667 8.66667C15.8467 8.66667 17.94 6.97333 18.5267 4.66667ZM4.03333 18H8.03333L9.36667 27.3333H6.7L4.03333 18ZM10.7 18H16.0333L14.7 27.3333H12.0333L10.7 18ZM18.7 18H22.7L20.0333 27.3333H17.3667L18.7 18Z" fill="#FF6600"/>
</svg>
