<svg width="24" height="27" viewBox="0 0 24 27" fill="none" xmlns="http://www.w3.org/2000/svg">
<path d="M2.67497 26.644C0.914972 26.644 0.208305 23.4974 0.0616381 22.244C-0.0962588 21.0272 0.0503466 19.7902 0.488305 18.644C0.680792 18.0986 1.01188 17.6127 1.44904 17.234C1.88619 16.8553 2.41436 16.5968 2.98164 16.484C4.54164 16.2174 5.6483 17.1507 7.06164 17.4707C7.32713 17.5559 7.61017 17.5708 7.88315 17.5141C8.15614 17.4573 8.40976 17.3308 8.61926 17.1468C8.82877 16.9628 8.98702 16.7276 9.07857 16.4643C9.17012 16.2009 9.19185 15.9183 9.14164 15.644C8.55497 13.3507 4.38164 13.3107 2.67497 13.3107C2.67497 10.8307 5.39497 10.5107 7.34164 10.6974C8.49648 10.8089 9.63362 11.0596 10.7283 11.444C11.395 11.6707 12.1683 12.244 12.9016 12.1907C14.0083 12.0974 14.235 10.9507 13.755 10.1107C12.595 8.13736 9.30164 7.97736 7.34164 7.97736C7.34164 5.31069 9.64831 4.80402 11.8616 5.20402C13.0044 5.42901 14.1182 5.78236 15.1816 6.25736C15.8616 6.55069 16.675 7.11069 17.4216 6.85736C19.3416 6.27069 17.3416 4.21736 16.4883 3.72402C15.8894 3.39353 15.254 3.134 14.595 2.95069C13.875 2.73736 12.995 2.81736 13.6483 1.97736C14.6699 1.07604 15.9374 0.500334 17.2883 0.324022C19.8083 -0.262644 23.2883 -0.369311 23.9016 2.80402C24.106 4.47942 23.704 6.17264 22.7683 7.57736C20.2837 11.8258 17.2086 15.7 13.635 19.084C11.7419 21.0246 9.69031 22.8041 7.50164 24.404C6.1683 25.364 4.4083 26.644 2.67497 26.644Z" fill="#FF6600"/>
</svg>
