<svg width="64" height="64" viewBox="0 0 64 64" fill="none" xmlns="http://www.w3.org/2000/svg">
<path d="M47.9994 49.3332C46.9385 49.3332 45.9211 48.9117 45.1709 48.1616C44.4208 47.4114 43.9994 46.394 43.9994 45.3332C43.9994 44.2723 44.4208 43.2549 45.1709 42.5047C45.9211 41.7546 46.9385 41.3332 47.9994 41.3332C49.0602 41.3332 50.0776 41.7546 50.8278 42.5047C51.5779 43.2549 51.9994 44.2723 51.9994 45.3332C51.9994 46.394 51.5779 47.4114 50.8278 48.1616C50.0776 48.9117 49.0602 49.3332 47.9994 49.3332ZM51.9994 25.3332L57.226 31.9998H45.3327V25.3332M15.9993 49.3332C14.9385 49.3332 13.9211 48.9117 13.1709 48.1616C12.4208 47.4114 11.9993 46.394 11.9993 45.3332C11.9993 44.2723 12.4208 43.2549 13.1709 42.5047C13.9211 41.7546 14.9385 41.3332 15.9993 41.3332C17.0602 41.3332 18.0776 41.7546 18.8278 42.5047C19.5779 43.2549 19.9993 44.2723 19.9993 45.3332C19.9993 46.394 19.5779 47.4114 18.8278 48.1616C18.0776 48.9117 17.0602 49.3332 15.9993 49.3332ZM53.3327 21.3332H45.3327V10.6665H7.99935C5.03935 10.6665 2.66602 13.0398 2.66602 15.9998V45.3332H7.99935C7.99935 47.4549 8.8422 49.4897 10.3425 50.99C11.8428 52.4903 13.8776 53.3332 15.9993 53.3332C18.1211 53.3332 20.1559 52.4903 21.6562 50.99C23.1565 49.4897 23.9993 47.4549 23.9993 45.3332H39.9994C39.9994 47.4549 40.8422 49.4897 42.3425 50.99C43.8428 52.4903 45.8776 53.3332 47.9994 53.3332C50.1211 53.3332 52.1559 52.4903 53.6562 50.99C55.1565 49.4897 55.9994 47.4549 55.9994 45.3332H61.3327V31.9998L53.3327 21.3332Z" fill="#FF6600"/>
</svg>
