<svg width="28" height="29" viewBox="0 0 28 29" fill="none" xmlns="http://www.w3.org/2000/svg">
<path fill-rule="evenodd" clip-rule="evenodd" d="M4.33333 5C3.71449 5 3.121 5.24583 2.68342 5.68342C2.24583 6.121 2 6.71449 2 7.33333V21.3333C2 21.9522 2.24583 22.5457 2.68342 22.9832C3.121 23.4208 3.71449 23.6667 4.33333 23.6667H23C23.6188 23.6667 24.2123 23.4208 24.6499 22.9832C25.0875 22.5457 25.3333 21.9522 25.3333 21.3333V7.33333C25.3333 6.71449 25.0875 6.121 24.6499 5.68342C24.2123 5.24583 23.6188 5 23 5H4.33333ZM16 10.8333C16 10.5239 16.1229 10.2272 16.3417 10.0084C16.5605 9.78958 16.8572 9.66667 17.1667 9.66667H20.6667C20.9761 9.66667 21.2728 9.78958 21.4916 10.0084C21.7104 10.2272 21.8333 10.5239 21.8333 10.8333C21.8333 11.1428 21.7104 11.4395 21.4916 11.6583C21.2728 11.8771 20.9761 12 20.6667 12H17.1667C16.8572 12 16.5605 11.8771 16.3417 11.6583C16.1229 11.4395 16 11.1428 16 10.8333ZM16 14.3333C16 14.0239 16.1229 13.7272 16.3417 13.5084C16.5605 13.2896 16.8572 13.1667 17.1667 13.1667H20.6667C20.9761 13.1667 21.2728 13.2896 21.4916 13.5084C21.7104 13.7272 21.8333 14.0239 21.8333 14.3333C21.8333 14.6428 21.7104 14.9395 21.4916 15.1583C21.2728 15.3771 20.9761 15.5 20.6667 15.5H17.1667C16.8572 15.5 16.5605 15.3771 16.3417 15.1583C16.1229 14.9395 16 14.6428 16 14.3333ZM16 17.8333C16 17.5239 16.1229 17.2272 16.3417 17.0084C16.5605 16.7896 16.8572 16.6667 17.1667 16.6667H20.6667C20.9761 16.6667 21.2728 16.7896 21.4916 17.0084C21.7104 17.2272 21.8333 17.5239 21.8333 17.8333C21.8333 18.1428 21.7104 18.4395 21.4916 18.6583C21.2728 18.8771 20.9761 19 20.6667 19H17.1667C16.8572 19 16.5605 18.8771 16.3417 18.6583C16.1229 18.4395 16 18.1428 16 17.8333ZM6.66667 12C6.66667 11.0717 7.03542 10.1815 7.69179 9.52513C8.34817 8.86875 9.23841 8.5 10.1667 8.5C11.0949 8.5 11.9852 8.86875 12.6415 9.52513C13.2979 10.1815 13.6667 11.0717 13.6667 12C13.6667 12.9283 13.2979 13.8185 12.6415 14.4749C11.9852 15.1313 11.0949 15.5 10.1667 15.5C9.23841 15.5 8.34817 15.1313 7.69179 14.4749C7.03542 13.8185 6.66667 12.9283 6.66667 12ZM8.93233 16.6667C8.1976 16.6664 7.48142 16.8974 6.88527 17.3268C6.28913 17.7563 5.84325 18.3625 5.61083 19.0595L5.5595 19.2147L5.55483 19.2287C5.50583 19.3757 5.49067 19.4235 5.50583 19.4562C5.51283 19.4713 5.52917 19.483 5.55017 19.5017C5.5875 19.5308 5.6435 19.5763 5.7205 19.6825C5.8286 19.8324 5.97075 19.9544 6.13525 20.0386C6.29974 20.1228 6.48188 20.1667 6.66667 20.1667H13.6667C13.8515 20.1667 14.0336 20.1228 14.1981 20.0386C14.3626 19.9544 14.5047 19.8324 14.6128 19.6825C14.6601 19.6139 14.7175 19.5529 14.7832 19.5017C14.8053 19.483 14.8193 19.4713 14.8275 19.455C14.8438 19.4235 14.8275 19.3757 14.7785 19.2287L14.7738 19.2147L14.7225 19.0595C14.4901 18.3627 14.0444 17.7566 13.4485 17.3272C12.8526 16.8977 12.1367 16.6667 11.4022 16.6667H8.93233Z" fill="#797979"/>
</svg>
