<svg width="28" height="28" viewBox="0 0 28 28" fill="none" xmlns="http://www.w3.org/2000/svg">
<path d="M16.3333 10.5C16.0028 10.5 15.7259 10.388 15.5027 10.164C15.2794 9.94 15.1674 9.66311 15.1667 9.33333V4.66667C15.1667 4.33611 15.2787 4.05922 15.5027 3.836C15.7267 3.61278 16.0036 3.50078 16.3333 3.5H23.3333C23.6639 3.5 23.9412 3.612 24.1652 3.836C24.3892 4.06 24.5008 4.33689 24.5 4.66667V9.33333C24.5 9.66389 24.388 9.94117 24.164 10.1652C23.94 10.3892 23.6631 10.5008 23.3333 10.5H16.3333ZM4.66667 15.1667C4.33611 15.1667 4.05922 15.0547 3.836 14.8307C3.61278 14.6067 3.50078 14.3298 3.5 14V4.66667C3.5 4.33611 3.612 4.05922 3.836 3.836C4.06 3.61278 4.33689 3.50078 4.66667 3.5H11.6667C11.9972 3.5 12.2745 3.612 12.4985 3.836C12.7225 4.06 12.8341 4.33689 12.8333 4.66667V14C12.8333 14.3306 12.7213 14.6078 12.4973 14.8318C12.2733 15.0558 11.9964 15.1674 11.6667 15.1667H4.66667ZM16.3333 24.5C16.0028 24.5 15.7259 24.388 15.5027 24.164C15.2794 23.94 15.1674 23.6631 15.1667 23.3333V14C15.1667 13.6694 15.2787 13.3926 15.5027 13.1693C15.7267 12.9461 16.0036 12.8341 16.3333 12.8333H23.3333C23.6639 12.8333 23.9412 12.9453 24.1652 13.1693C24.3892 13.3933 24.5008 13.6702 24.5 14V23.3333C24.5 23.6639 24.388 23.9412 24.164 24.1652C23.94 24.3892 23.6631 24.5008 23.3333 24.5H16.3333ZM4.66667 24.5C4.33611 24.5 4.05922 24.388 3.836 24.164C3.61278 23.94 3.50078 23.6631 3.5 23.3333V18.6667C3.5 18.3361 3.612 18.0592 3.836 17.836C4.06 17.6128 4.33689 17.5008 4.66667 17.5H11.6667C11.9972 17.5 12.2745 17.612 12.4985 17.836C12.7225 18.06 12.8341 18.3369 12.8333 18.6667V23.3333C12.8333 23.6639 12.7213 23.9412 12.4973 24.1652C12.2733 24.3892 11.9964 24.5008 11.6667 24.5H4.66667Z" fill="#797979"/>
</svg>
