<svg width="28" height="27" viewBox="0 0 28 27" fill="none" xmlns="http://www.w3.org/2000/svg">
<path d="M14.0035 8.77694e-06C15.8162 0.00109973 17.6051 0.429702 19.236 1.25365C20.8669 2.0776 22.2974 3.2755 23.4201 4.75746C24.5429 6.23941 25.3288 7.96693 25.7189 9.81038C26.1089 11.6538 26.0929 13.5653 25.6721 15.4014C25.2514 17.2375 24.4368 18.9506 23.2894 20.4119C22.142 21.8733 20.6917 23.0451 19.0473 23.8394C17.4029 24.6337 15.6071 25.0298 13.7947 24.9981C11.9822 24.9663 10.2002 24.5075 8.5824 23.6561L8.40085 23.5545L2.93177 24.9764C2.82652 25.004 2.71677 25.0074 2.61011 24.9865C2.50345 24.9656 2.40242 24.9209 2.31398 24.8554C2.22554 24.7899 2.1518 24.7052 2.09785 24.6071C2.0439 24.509 2.01103 24.3999 2.0015 24.2874V24.1592L2.02251 24.0295L3.3879 18.3358L3.29337 18.1483C2.60846 16.7401 2.18589 15.2095 2.04801 13.6374L2.0105 13.0406L2 12.4999C2.001 11.6426 2.08102 10.8098 2.24007 10.0015V9.99994C2.25988 9.89535 2.2998 9.79601 2.35742 9.7079C2.41504 9.61979 2.48918 9.54472 2.57538 9.48721C2.66158 9.42971 2.75806 9.39095 2.85902 9.37327C2.95997 9.35558 3.06331 9.35934 3.16284 9.38432C3.62347 9.50932 3.78252 9.99995 3.69249 10.4328L3.67448 10.5093C3.23226 13.0241 3.64501 15.6208 4.84182 17.853C4.91144 17.9825 4.94423 18.1299 4.93635 18.278L4.91534 18.4249L3.78101 23.1452L8.31833 21.9671C8.41055 21.9433 8.50628 21.938 8.60041 21.9514L8.73695 21.9842L8.86749 22.0452C10.6416 23.0801 12.666 23.5565 14.6951 23.4165C16.7242 23.2765 18.6706 22.5262 20.2981 21.2565C21.9255 19.9868 23.1641 18.2525 23.8633 16.264C24.5625 14.2755 24.6924 12.1184 24.2372 10.0545C23.782 7.99064 22.7612 6.10876 21.2988 4.63734C19.8364 3.16591 17.9952 2.16821 15.9988 1.76535C14.0024 1.3625 11.9367 1.57181 10.0523 2.36789C8.16798 3.16396 6.54607 4.51256 5.38348 6.24997H8.75195C8.95092 6.24997 9.14174 6.33228 9.28243 6.47879C9.42313 6.6253 9.50217 6.82402 9.50217 7.03121C9.50217 7.23841 9.42313 7.43713 9.28243 7.58364C9.14174 7.73015 8.95092 7.81246 8.75195 7.81246H4.25065C4.05168 7.81246 3.86086 7.73015 3.72017 7.58364C3.57947 7.43713 3.50043 7.23841 3.50043 7.03121V2.34374C3.50043 2.13654 3.57947 1.93783 3.72017 1.79132C3.86086 1.64481 4.05168 1.5625 4.25065 1.5625C4.44962 1.5625 4.64044 1.64481 4.78113 1.79132C4.92183 1.93783 5.00087 2.13654 5.00087 2.34374V4.23123C6.12612 2.89973 7.51122 1.83355 9.06368 1.1039C10.6161 0.374244 12.3002 -0.00209563 14.0035 8.77694e-06ZM5.51252 9.37495C5.1762 10.3689 5.00322 11.4148 5.00087 12.4687L5.00987 12.9046L5.03988 13.3905C5.14559 14.5475 5.45697 15.674 5.95814 16.7124L6.57782 17.9311L5.84261 20.9983L8.79396 20.2327L9.9643 20.8811C11.3789 21.6198 12.9556 21.9571 14.5353 21.859C16.115 21.761 17.642 21.231 18.9623 20.3226C20.2826 19.4141 21.3497 18.1593 22.056 16.6845C22.7622 15.2098 23.0826 13.5672 22.985 11.9224C22.8874 10.2776 22.3752 8.6886 21.4999 7.31563C20.6246 5.94266 19.4173 4.83421 17.9996 4.10199C16.5819 3.36977 15.0038 3.03966 13.4246 3.14491C11.8453 3.25017 10.3205 3.78709 9.00402 4.70154C9.57666 4.76714 10.1033 5.05891 10.4756 5.51676C10.8478 5.97461 11.0373 6.56369 11.005 7.16266C10.9727 7.76163 10.7211 8.3249 10.3019 8.73646C9.88278 9.14802 9.32804 9.37654 8.75195 9.37495H5.51252ZM14.0035 8.5937V14.0624H17.7546C17.9535 14.0624 18.1443 14.1447 18.285 14.2912C18.4257 14.4378 18.5048 14.6365 18.5048 14.8437C18.5048 15.0509 18.4257 15.2496 18.285 15.3961C18.1443 15.5426 17.9535 15.6249 17.7546 15.6249H13.2533C13.0543 15.6249 12.8635 15.5426 12.7228 15.3961C12.5821 15.2496 12.503 15.0509 12.503 14.8437V8.5937C12.503 8.38651 12.5821 8.18779 12.7228 8.04128C12.8635 7.89477 13.0543 7.81246 13.2533 7.81246C13.4522 7.81246 13.643 7.89477 13.7837 8.04128C13.9244 8.18779 14.0035 8.38651 14.0035 8.5937Z" fill="#797979"/>
</svg>
