<svg width="76" height="106" viewBox="0 0 76 106" fill="none" xmlns="http://www.w3.org/2000/svg">
<path d="M38 0C38 0 0 42.9048 0 68.1429C0 88.9643 17.1 106 38 106C58.9 106 76 88.9643 76 68.1429C76 42.9048 38 0 38 0ZM38 33.4405V42.9048C51.9333 42.9048 63.3333 54.2619 63.3333 68.1429C63.3333 73.1905 62.0667 78.2381 58.9 82.0238L51.9333 75.0833C53.2 73.1905 53.8333 70.6667 53.8333 68.1429C53.8333 59.3095 46.8667 52.369 38 52.369V61.8333L24.0667 47.9524L38 33.4405ZM17.1 54.2619L24.0667 61.2024C22.8 63.0952 22.1667 65.619 22.1667 68.1429C22.1667 76.9762 29.1333 83.9167 38 83.9167V74.4524L51.9333 88.3333L38 102.845V93.381C24.0667 93.381 12.6667 82.0238 12.6667 68.1429C12.6667 63.0952 13.9333 58.0476 17.1 54.2619Z" fill="#3C965A"/>
</svg>
