<svg width="28" height="29" viewBox="0 0 28 29" fill="none" xmlns="http://www.w3.org/2000/svg">
<path d="M20.8333 21.9167C20.3692 21.9167 19.9241 21.7323 19.5959 21.4041C19.2677 21.0759 19.0833 20.6308 19.0833 20.1667C19.0833 19.7025 19.2677 19.2574 19.5959 18.9292C19.9241 18.601 20.3692 18.4167 20.8333 18.4167C21.2975 18.4167 21.7426 18.601 22.0708 18.9292C22.399 19.2574 22.5833 19.7025 22.5833 20.1667C22.5833 20.6308 22.399 21.0759 22.0708 21.4041C21.7426 21.7323 21.2975 21.9167 20.8333 21.9167ZM22.5833 11.4167L24.87 14.3333H19.6667V11.4167M6.83333 21.9167C6.3692 21.9167 5.92408 21.7323 5.5959 21.4041C5.26771 21.0759 5.08333 20.6308 5.08333 20.1667C5.08333 19.7025 5.26771 19.2574 5.5959 18.9292C5.92408 18.601 6.3692 18.4167 6.83333 18.4167C7.29746 18.4167 7.74258 18.601 8.07077 18.9292C8.39896 19.2574 8.58333 19.7025 8.58333 20.1667C8.58333 20.6308 8.39896 21.0759 8.07077 21.4041C7.74258 21.7323 7.29746 21.9167 6.83333 21.9167ZM23.1667 9.66667H19.6667V5H3.33333C2.03833 5 1 6.03833 1 7.33333V20.1667H3.33333C3.33333 21.0949 3.70208 21.9852 4.35846 22.6415C5.01484 23.2979 5.90508 23.6667 6.83333 23.6667C7.76159 23.6667 8.65183 23.2979 9.30821 22.6415C9.96458 21.9852 10.3333 21.0949 10.3333 20.1667H17.3333C17.3333 21.0949 17.7021 21.9852 18.3585 22.6415C19.0148 23.2979 19.9051 23.6667 20.8333 23.6667C21.7616 23.6667 22.6518 23.2979 23.3082 22.6415C23.9646 21.9852 24.3333 21.0949 24.3333 20.1667H26.6667V14.3333L23.1667 9.66667Z" fill="#797979"/>
</svg>
